<svg version="1.1" id="Capa_1" xmlns="http://www.w3.org/2000/svg" x="0" y="0" viewBox="0 0 57 57" style="enable-background:new 0 0 57 57" xml:space="preserve"><path style="fill:#6e5847" d="M28.5 0C14.475 0 3 11.475 3 25.5V50c0 2.2 1.8 4 4 4h6.777c4.16 2.021 9.237 3 14.723 3s10.563-.979 14.723-3H50c2.2 0 4-1.8 4-4V25.5C54 11.475 42.525 0 28.5 0z"/><path style="fill:#fdc794" d="M3.869 29.894A25.515 25.515 0 0 0 3 36.5C3 50.583 14.417 57 28.5 57S54 50.583 54 36.5C54 22.842 42.495 11.661 29 11h-1c-13.495.661-25 11.842-25 25.5C3 50.583 14.417 57 28.5 57S54 50.583 54 36.5"/><path style="fill:#8697cb" d="m25.958 44.525-.766-1.531a1.565 1.565 0 0 1 .285-1.806c.868-.875 2.362-2.306 3.983-3.521a6.466 6.466 0 0 0-4.192-.529c-2.643.543-4.728 2.761-5.097 5.435a6.503 6.503 0 0 0 6.58 7.426c2.558-.055 4.83-1.732 5.845-4.081.613-1.42.615-2.749.319-3.962-1.151.96-2.691 2.034-4.751 3.225-.787.454-1.8.155-2.206-.656z"/><circle style="fill:#fff" cx="17.5" cy="27.5" r="5.5"/><circle style="fill:#6e5847" cx="20" cy="27.5" r="3.5"/><circle style="fill:#fff" cx="38.5" cy="27.5" r="5.5"/><circle style="fill:#6e5847" cx="41" cy="27.5" r="3.5"/><path style="fill:#7d6599" d="M35.704 37.534c-.59-1.381-1.944-2.308-3.37-2.308-.653 0-1.286.184-1.88.547-3.208 1.96-6.013 5.455-6.13 5.604a.999.999 0 0 0-.05 1.178l2 3a.999.999 0 0 0 1.307.325c.945-.511 1.773-.942 2.505-1.323 2.339-1.219 3.751-1.954 4.901-3.157 1.026-1.073 1.294-2.518.717-3.866z"/></svg>