<svg xmlns="http://www.w3.org/2000/svg" viewBox="0 0 30.35 44.2"><g id="Шар_2" data-name="Шар 2"><path d="m30.25 21.43-.14-.14-.11-.11-.43-.32-.14-.08-.12-.11-.14-.1-3.09-3.2-.23-.17-.24-.15-.24-.15-.25-.11-.24-.12-.24-.09-.26-.09-.26-.06-.26-.07h-2.93l-.26.05-.54.12-.52.14-.76.25-.62.21q.21-.42.39-.87l.15-.4.13-.41.14-.4.1-.41.1-.42.1-.42.08-.42.05-.43v-.42l.06-.42V9.56l-.06-.42v-.85l-.08-.44-.08-.42-.16-.43-.1-.43-.11-.4-.12-.43-.11-.41-.14-.4-.14-.41-.15-.4-.17-.4-.11-.24-.12-.23-.1-.25-.13-.23-.26-.46-.28-.45c-.16-.22-.3-.44-.44-.65-.2-.27-.39-.55-.6-.82l-.19-.24-.1-.1h-.36l-.1.08-.08.08-.06.07c-.07.13-.14.26-.22.39-.41.66-.82 1.34-1.21 2-.08.12-.15.27-.23.4s0 .06 0 .1c-.15.28-.29.57-.43.86l-.18.41a1.39 1.39 0 0 0-.06.13c-.13.3-.25.61-.36.92l-.27.76c-.06.19-.12.38-.17.59s-.19.66-.27 1-.1.41-.14.62-.12.57-.17.87l-.06.46V13.17c0 .24.06.48.1.72s.07.47.12.71.1.47.14.7l.13.46c.11.4.23.81.38 1.21a11.91 11.91 0 0 0-1.34-.33l-.72-.12-.77-.1H7.06l-.43.07-.41.09-.42.1-.4.13-.5.19-.4.17-.2.11-.19.1-.2.1-.2.11-.19.12-.2.13-.38.27-.55.44c-.2.14-.38.29-.56.44l-.36.34-.17.18-.17.17-.13.16-.19.16-.15.19-.14.21-.14.19-.12.22L.2 21l-.08.16v.54l.05.17.03.13.19.06.56.12.29.08c.17.06.33.11.49.18s.57.28.87.41.65.31 1 .45l.71.27.58.19.58.16.46.09h.3l.48.05h.87l.33-.06h.34l.33-.08.29-.09.33-.12.48-.19.47-.23.31-.19a11.38 11.38 0 0 0 1-.66V23.61a6.16 6.16 0 0 0 .09.72l.07.36c0 .18.08.36.13.56a9.2 9.2 0 0 0 .4 1.15h-.11l-.22-.06h-1.74l-.22.06h-.2l-.23.07-.21.06-.22.08-.18.07-.21.1-.21.1-.19.1-.2.1-.2.12-.18.13-.18.13-.19.13-.17.14-.09.11-.21.16-.15.15-.15.15-.14.17-.14.17-.21.28-.1.16-.09.15-.08.17-.09.16-.07.17-.06.18-.06.18-.06.18V31.18l.05.24a1.45 1.45 0 0 0 .09.22h-.06l-.16.13-.15.23-.16.15-.13.15-.11.18-.09.18-.09.21-.06.19v2.1l.07.18.13.36c.07.18.14.36.22.54.22.46.45.91.67 1.38l.15.33.15.32c.05.15.09.29.13.43a3.29 3.29 0 0 1 .1.37c0 .13 0 .26.06.4s0 .19 0 .3V40.7l-.06.17-.01.13-.13.2-.11.15-.11.15-.11.16-.22.34c-.23.26-.49.52-.7.79l-.13.15-.1.17-.07.17V44.11h.15l.07-.06v-.06.01-.52l.08-.16.11-.15L5 43l.13-.15.26-.28L6 42l.14-.15.12-.14.14-.17.11-.17.11-.19.1-.19.07-.2.08-.2v-2.17l-.12-.38c-.06-.19-.13-.37-.2-.57-.2-.48-.41-1-.6-1.47-.06-.18-.14-.36-.2-.53l-.09-.35c-.07-.24-.12-.45-.17-.68l-.06-.34V33l.07-.14.07-.13.1-.12.15-.15.14-.1.16.17.19.18.19.16.21.15.21.13.34.18.36.16.35.14a7 7 0 0 0 .72.19.73.73 0 0 0 .2 0c.16 0 .32.07.49.09l.35.06h1.1l.16-.05.15-.07.12-.07.12-.12.09-.13.06-.17v-.55l-.05-.19-.08-.19-.1-.19-.11-.16-.19-.2-.15-.16-.15-.13-.17-.14-.19-.11-.2-.11-.2-.1-.22-.07-.19-.06h-.29l-.37-.05H7.8c-.14 0-.3 0-.46.06l-.45.11-.23.06c-.18.05-.35.12-.51.18v-.86l.1-.27.1-.27.14-.26.15-.24.17-.24.18-.23.3-.34c.11-.1.22-.2.32-.31L8 28c.11-.09.23-.17.36-.26a3 3 0 0 1 .35-.23l.12-.07c.08 0 .15-.09.22-.12l.33-.16.39-.16a2.07 2.07 0 0 1 .33-.1 3.18 3.18 0 0 1 .33-.08l.34-.05h1.01l.34.06a2.6 2.6 0 0 1 .4.1l.06.1.1.16.11.14.08.08v.06l.13.13.12.13.13.11.14.11.1.07h.41l.08-.07.05-.08v-.58l-.06-.07-.06-.08-.07-.07-.27-.07h-.05l-.17-.13-.23-.14-.18-.09V26.35l-.05-.2-.1-.37-.07-.39-.09-.58c0-.37-.07-.75-.11-1.13a9.44 9.44 0 0 1-.06-1.92l.36-.3.13-.12.09-.11.11-.16.1-.15.09-.16.07-.15.07-.16v-.16l.05-.15v-.74l-.05-.06-.12-.09-.12-.05h-.22l-.09.06-.08.07-.25.32-.2.35-.17.31-.16.33-.15.33-.12.33-.06.18-.05.18-.07.3c-.16.12-.33.23-.52.35a4.41 4.41 0 0 1-.43.25c-.16.1-.31.17-.45.25l-.46.19c-.16.07-.33.13-.48.18l-.41.13H8.8l-.32.08-.33.06-.32.05H6.57l-.33-.05-.47-.1-.46-.15a2.28 2.28 0 0 1-.44-.2l-.59-.23-.28-.16c-.68-.32-1.37-.68-2-1l-.48-.22-.39-.12.29-.46.43-.54.44-.46c.15-.16.31-.3.47-.45s.31-.29.48-.43.33-.27.5-.39l.26-.28.49-.33.29-.16.3-.16.3-.12.32-.12.33-.1a2.07 2.07 0 0 1 .49-.12 4.54 4.54 0 0 1 .51-.09 4.46 4.46 0 0 1 .53-.06h1.69c.64 0 1.28.11 1.91.19l.37.07a8.38 8.38 0 0 1 .87.18 4.49 4.49 0 0 0 .21.44 2.28 2.28 0 0 0 .2.38l.06.09.08.14.16.22.17.22.2.19.07.06.14.09.15.07h.6l.13-.06.18-.16.07-.14V18.51l-.09-.16-.09-.16-.12-.19-.22-.16c-.1-.06-.21-.14-.31-.19l-.24-.13-.23-.1c-.15-.07-.31-.13-.48-.19l-.17-.08h-.11l-.12-.28-.1-.35-.1-.35-.1-.36-.08-.36-.09-.36-.06-.36-.11-.36V9.56l.07-.37.06-.38.07-.36.09-.36.08-.36.11-.36.1-.36.13-.36.12-.33L13 6l.14-.35.19-.45.19-.4c.11-.2.22-.39.33-.6s.22-.38.34-.58.39-.6.58-.91l.23-.33.43-.6.28-.45c.25.32.5.61.74.92l.22.4c.26.48.52 1 .77 1.43l.8 2.11.19.67.09.33.08.35.08.33.07.34.05.35.05.33.05.33.05.36v3.04L19 13l-.05.34v.33l-.06.34-.06.33-.06.34-.17.32-.1.32-.1.34-.11.32c-.13.37-.27.73-.43 1.09l-.18.34-.45.18-.43.19-.15.08-.12.07-.14.09-.13.09-.12.08-.13.11-.09.11-.1.14-.09.12V19.16l.06.07h.54a1.53 1.53 0 0 0 .27-.17 3.76 3.76 0 0 0 .31-.25l.19-.2.29-.31c.08-.11.17-.22.24-.33l.21-.31.86-.31.46-.15.79-.2c.16 0 .31-.06.47-.09l.8-.1h1.75l.4.05c.13 0 .25 0 .37.09l.36.12.34.14a2 2 0 0 1 .32.17l.32.19a3.79 3.79 0 0 1 .4.3c.14.11.26.23.39.35l.48.47c.35.41.69.83 1 1.24l1.14 1.23c.22.18.45.35.66.51l-.09.11-.79.5-1 .49-.87.32c-.29.1-.59.19-.89.27s-.53.12-.8.17h-.23c-.27 0-.53.06-.8.07h-1.19l-.19-.05-.18-.05-.12-.03-.38-.13-.35-.16-.39-.18-.54-.28-.52-.31c-.47-.3-.95-.58-1.42-.86l-.53-.31-.4-.19a6.63 6.63 0 0 0-.6-.29l-.23-.1H16.4l-.15-.06h-.39l-.11.08-.09.12v.07a.52.52 0 0 0 0 .18V21.22l.11.09.1-.05V21a.14.14 0 0 0 0-.07.09.09 0 0 1 0-.11.45.45 0 0 1 .23 0l.17.05.16.05.16.07.19.08.17.08.35.2.57.33c.52.35 1 .73 1.55 1.07.21.15.42.27.62.4l.44.26.42.24.23.11.22.1.22.09.23.09.22.08.23.07.23.06h1.57c.51 0 1-.12 1.52-.21a5.61 5.61 0 0 0 .59-.13l.6-.15.59-.2.58-.21.56-.26L29 23l.27-.15.54-.35.15-.12.16-.14.15-.17.11-.19v-.23l-.1-.21" style="fill:#38389b" id="Слой_1" data-name="Слой 1"/></g></svg>