<svg aria-hidden="true" style="width:0;height:0;position:absolute;overflow:hidden" xmlns="http://www.w3.org/2000/svg"><defs><symbol id="icon-anc-logo" viewBox="0 0 121 32"><path fill="#008ad2" style="fill:var(--color1,#008ad2)" d="M4.094 21.355c-1.338 0-2.33-.959-2.33-2.278V12.48c0-1.319.991-2.278 2.33-2.278H6.25c1.338 0 2.314.959 2.314 2.278v.832H6.313V12.7c0-.189-.125-.298-.315-.298H4.33c-.189 0-.299.111-.299.298v6.157c0 .189.111.298.299.298h1.669c.189 0 .315-.11.315-.298v-.612h2.251v.832c0 1.319-.977 2.278-2.314 2.278H4.093zM18.814 10.281h2.519v10.995h-2.172v-5.561h-.125l-1.968 5.561h-2.503l-1.968-5.561h-.125v5.561H10.3V10.281h2.519l2.929 8.2h.141l2.926-8.2zM23.379 21.277V10.282h2.33v10.995h-2.33zM34.683 21.277h-2.346v-8.796h-1.354l-1.26 8.796h-2.362l1.591-10.995h5.731v10.995zM43.531 21.277h-2.172V15.48h-.125l-2.22 5.797h-2.283V10.282h2.172v5.827h.125l2.22-5.827h2.283v10.995zM45.576 21.277V10.282h4.44c1.306 0 2.314.959 2.314 2.278v1.382c0 .739-.362 1.43-.961 1.759v.157c.598.33.961 1.021.961 1.759v1.382c0 1.319-1.007 2.278-2.33 2.278l-4.423.001zm2.204-6.597h2.047c.173 0 .299-.111.299-.298V12.78c0-.189-.125-.298-.299-.298H47.78v2.198zm0 4.397h2.047c.173 0 .299-.11.299-.298v-1.602c0-.189-.125-.298-.299-.298H47.78v2.198zM54.219 21.277V10.282h2.33v10.995h-2.33zM60.768 21.355c-1.338 0-2.33-.959-2.33-2.278V12.48c0-1.319.991-2.278 2.33-2.278h2.157c1.338 0 2.314.959 2.314 2.278v.832h-2.251V12.7c0-.189-.126-.298-.315-.298h-1.669c-.19 0-.299.111-.299.298v6.157c0 .189.111.298.299.298h1.669c.19 0 .315-.11.315-.298v-.612h2.251v.832c0 1.319-.977 2.278-2.314 2.278h-2.157zM73.19 12.481h-2.221v8.796h-2.33v-8.796h-2.22v-2.199h6.769v2.199h.001zM74.684 10.281h2.33v4.399h2.156c1.323 0 2.33.959 2.33 2.278V19c0 1.319-1.007 2.278-2.33 2.278h-4.487V10.281h.001zm2.252 6.598v2.199h2.063c.174 0 .299-.11.299-.298v-1.602c0-.189-.125-.298-.299-.298l-2.063-.001zM104.126 25.792c-.732-1.353-2.265-1.801-2.265-1.801-.941-.294-4.345-.019-5.176-.187s-1.552-.211-1.812.012.039.572.421.739c1.147.503 3.784.939 3.784.939s-3.443 1.583-7.141-2.617c-1.056-1.196-1.781-.592-1.454-.076.993 1.61 4.457 6.241 11.714 6.241 5.04 0 9.11-3.007 11.199-6.36.311-.5.021-.743-.571-.143-1.779 1.801-4.973 4.16-8.699 3.253zM100.074 5.763c.733 1.352 2.265 1.799 2.265 1.799.941.294 4.344.019 5.176.187s1.552.211 1.812-.012-.039-.571-.421-.738c-1.147-.503-3.786-.932-3.786-.932s3.44-1.589 7.14 2.606c1.056 1.196 1.781.592 1.454.075-.99-1.605-4.455-6.235-11.712-6.235-5.04 0-9.109 3.005-11.198 6.36-.311.499-.021.742.57.143 1.78-1.802 4.975-4.163 8.701-3.254zM93.467 18.049h-3.259l-.587 1.74a.395.395 0 0 1-.371.263h-1.926a.386.386 0 0 1-.372-.503l2.509-7.718a.389.389 0 0 1 .371-.268h4.022a.392.392 0 0 1 .371.266l2.539 7.718a.392.392 0 0 1-.057.346.386.386 0 0 1-.314.157h-2.008c-.083 0-.164-.026-.231-.074s-.117-.117-.142-.196l-.545-1.733zm-2.715-1.818 2.12.012-1.037-3.328-1.084 3.316zM107.172 19.629v-7.657c.001-.103.042-.202.116-.274s.173-.113.276-.113h2.013c.051 0 .101.01.149.029s.09.048.126.084a.4.4 0 0 1 .115.275v5.876h2.018v-5.876a.39.39 0 0 1 .392-.387h2.018a.39.39 0 0 1 .392.387v5.876h.705c.051 0 .102.009.149.029s.091.048.127.083a.401.401 0 0 1 .116.275v2.977a.395.395 0 0 1-.243.357.403.403 0 0 1-.149.029h-.883a.386.386 0 0 1-.388-.336l-.19-1.245h-6.468a.384.384 0 0 1-.276-.112.39.39 0 0 1-.116-.275zM106.11 11.952v7.674a.381.381 0 0 1-.115.275.39.39 0 0 1-.277.113h-2.119a.38.38 0 0 1-.276-.113.4.4 0 0 1-.115-.275v-2.725h-2.388v2.725a.381.381 0 0 1-.115.275.39.39 0 0 1-.277.113H98.31a.389.389 0 0 1-.392-.388v-7.674a.381.381 0 0 1 .115-.275.402.402 0 0 1 .277-.113h2.118a.389.389 0 0 1 .392.388v2.725h2.388v-2.725a.381.381 0 0 1 .115-.275.402.402 0 0 1 .276-.113h2.119a.389.389 0 0 1 .392.388z"/></symbol></defs></svg>