<svg width="201" height="53" viewBox="0 0 201 53" fill="none" xmlns="http://www.w3.org/2000/svg">
<path d="M6.78056 35.3692C4.56384 35.3692 2.92175 33.7816 2.92175 31.5964V20.6707C2.92175 18.4855 4.56384 16.8979 6.78056 16.8979H10.3521C12.5688 16.8979 14.1843 18.4855 14.1843 20.6707V22.0488H10.4559V21.0345C10.4559 20.7214 10.2482 20.5406 9.93434 20.5406H7.17174C6.85791 20.5406 6.67668 20.7236 6.67668 21.0345V31.2326C6.67668 31.5457 6.86012 31.7265 7.17174 31.7265H9.93655C10.2504 31.7265 10.4581 31.5435 10.4581 31.2326V30.2183H14.1865V31.5964C14.1865 33.7816 12.5688 35.3692 10.3543 35.3692H6.78056Z" fill="#008AD2"/>
<path d="M31.1599 17.0283H35.3326V35.2393H31.7345V26.0291H31.5268L28.2669 35.2393H24.1208L20.8609 26.0291H20.6532V35.2393H17.0552V17.0283H21.2278L26.0789 30.6089H26.3132L31.1599 17.0283Z" fill="#008AD2"/>
<path d="M38.7207 35.2393V17.0283H42.5795V35.2393H38.7207Z" fill="#008AD2"/>
<path d="M57.4445 35.2393H53.5591V20.671H51.3159L49.2296 35.2393H45.3177L47.9522 17.0283H57.4445V35.2393V35.2393Z" fill="#008AD2"/>
<path d="M72.0974 35.2393H68.4994V25.6388H68.2916L64.614 35.2393H60.8326V17.0283H64.4306V26.6796H64.6383L68.3159 17.0283H72.0974V35.2393Z" fill="#008AD2"/>
<path d="M75.4854 35.2393V17.0283H82.8383C85.002 17.0283 86.6706 18.6159 86.6706 20.8011V23.0898C86.6706 24.3136 86.0717 25.458 85.0793 26.0026V26.2628C86.0695 26.8097 86.6706 27.9541 86.6706 29.1756V31.4644C86.6706 33.6496 85.002 35.2371 82.8118 35.2371H75.4854V35.2393ZM79.1364 24.3136H82.5267C82.814 24.3136 83.0218 24.1306 83.0218 23.8197V21.1671C83.0218 20.854 82.814 20.6732 82.5267 20.6732H79.1364V24.3136ZM79.1364 31.5967H82.5267C82.814 31.5967 83.0218 31.4137 83.0218 31.1028V28.4502C83.0218 28.1371 82.814 27.9563 82.5267 27.9563H79.1364V31.5967Z" fill="#008AD2"/>
<path d="M89.8001 35.2393V17.0283H93.6589V35.2393H89.8001Z" fill="#008AD2"/>
<path d="M100.647 35.3692C98.4305 35.3692 96.7884 33.7816 96.7884 31.5964V20.6707C96.7884 18.4855 98.4305 16.8979 100.647 16.8979H104.219C106.435 16.8979 108.051 18.4855 108.051 20.6707V22.0488H104.323V21.0345C104.323 20.7214 104.115 20.5406 103.801 20.5406H101.036C100.722 20.5406 100.541 20.7236 100.541 21.0345V31.2326C100.541 31.5457 100.725 31.7265 101.036 31.7265H103.801C104.115 31.7265 104.323 31.5435 104.323 31.2326V30.2183H108.051V31.5964C108.051 33.7816 106.433 35.3692 104.219 35.3692H100.647Z" fill="#008AD2"/>
<path d="M121.221 20.671H117.543V35.2393H113.684V20.671H110.007V17.0283H121.219V20.671H121.221Z" fill="#008AD2"/>
<path d="M123.696 17.0283H127.555V24.3136H131.126C133.317 24.3136 134.985 25.9012 134.985 28.0864V31.4688C134.985 33.654 133.317 35.2416 131.126 35.2416H123.694V17.0283H123.696ZM127.425 27.9563V31.5989H130.841C131.129 31.5989 131.336 31.4159 131.336 31.105V28.4524C131.336 28.1393 131.129 27.9585 130.841 27.9585H127.425V27.9563Z" fill="#008AD2"/>
<path d="M172.459 42.718C171.246 40.4774 168.707 39.7357 168.707 39.7357C167.148 39.2492 161.511 39.7043 160.135 39.4257C158.758 39.1471 157.565 39.0765 157.134 39.4454C156.703 39.8142 157.199 40.393 157.832 40.6697C159.732 41.5035 164.099 42.2255 164.099 42.2255C164.099 42.2255 158.396 44.8468 152.271 37.8914C150.522 35.9098 149.321 36.9104 149.862 37.7659C151.506 40.4322 157.244 48.1018 169.264 48.1018C177.612 48.1018 184.353 43.1222 187.812 37.5677C188.327 36.7397 187.846 36.3375 186.866 37.3303C183.92 40.3126 178.63 44.2209 172.459 42.718Z" fill="#008AD2"/>
<path d="M165.747 9.5444C166.961 11.7831 169.498 12.5247 169.498 12.5247C171.057 13.0113 176.693 12.5561 178.07 12.8347C179.447 13.1133 180.64 13.1839 181.071 12.8151C181.502 12.4462 181.006 11.8694 180.373 11.5927C178.473 10.7589 174.103 10.0486 174.103 10.0486C174.103 10.0486 179.8 7.41758 185.928 14.3651C187.677 16.3467 188.878 15.3461 188.337 14.4887C186.697 11.8302 180.959 4.1626 168.939 4.1626C160.591 4.1626 153.852 9.14023 150.392 14.6967C149.877 15.5227 150.357 15.9249 151.336 14.9341C154.284 11.9498 159.576 8.03954 165.747 9.5444Z" fill="#008AD2"/>
<path fill-rule="evenodd" clip-rule="evenodd" d="M154.805 29.8939H149.407L148.434 32.7761C148.39 32.9035 148.307 33.014 148.197 33.0921C148.087 33.1702 147.955 33.212 147.82 33.2117H144.63C144.529 33.2123 144.43 33.1891 144.339 33.144C144.249 33.0988 144.171 33.033 144.111 32.9519C144.051 32.8708 144.011 32.7767 143.994 32.6773C143.977 32.5778 143.985 32.4759 144.015 32.3798L148.17 19.5972C148.213 19.468 148.295 19.3556 148.406 19.276C148.516 19.1963 148.649 19.1536 148.786 19.1538H155.447C155.583 19.1535 155.715 19.1959 155.826 19.2752C155.936 19.3544 156.019 19.4664 156.062 19.5953L160.267 32.3778C160.297 32.4741 160.305 32.5762 160.288 32.6759C160.272 32.7756 160.232 32.87 160.172 32.9514C160.112 33.0327 160.033 33.0987 159.943 33.144C159.852 33.1892 159.752 33.2124 159.651 33.2117H156.326C156.188 33.2123 156.054 33.1693 155.943 33.0889C155.832 33.0084 155.75 32.8947 155.708 32.7643L154.805 29.8939ZM150.308 26.8822L153.82 26.9018L152.103 21.3905L150.308 26.8822Z" fill="#008AD2"/>
<path fill-rule="evenodd" clip-rule="evenodd" d="M177.503 32.5101V19.8276C177.504 19.6568 177.573 19.4933 177.695 19.373C177.817 19.2528 177.981 19.1855 178.152 19.186H181.486C181.57 19.1858 181.654 19.2022 181.733 19.2343C181.811 19.2664 181.882 19.3136 181.942 19.3731C182.002 19.4327 182.05 19.5035 182.083 19.5815C182.116 19.6595 182.132 19.7431 182.133 19.8276V29.5592H185.476V19.8276C185.477 19.6568 185.546 19.4933 185.667 19.373C185.789 19.2528 185.954 19.1855 186.125 19.186H189.468C189.639 19.1855 189.804 19.2528 189.925 19.373C190.047 19.4933 190.116 19.6568 190.117 19.8276V29.5592H191.285C191.37 29.5587 191.454 29.5748 191.532 29.6067C191.611 29.6386 191.682 29.6855 191.742 29.7449C191.803 29.8043 191.851 29.875 191.883 29.9528C191.916 30.0307 191.934 30.1143 191.934 30.1988V35.1294C191.934 35.2139 191.916 35.2975 191.883 35.3753C191.851 35.4532 191.803 35.5239 191.742 35.5833C191.682 35.6427 191.611 35.6896 191.532 35.7215C191.454 35.7534 191.37 35.7695 191.285 35.769H189.822C189.665 35.7699 189.513 35.7139 189.395 35.6113C189.277 35.5088 189.2 35.3667 189.179 35.2118L188.864 33.1497H178.152C178.068 33.1502 177.984 33.1341 177.905 33.1022C177.827 33.0704 177.755 33.0234 177.695 32.964C177.635 32.9046 177.587 32.8339 177.554 32.7561C177.521 32.6782 177.504 32.5946 177.503 32.5101V32.5101Z" fill="#008AD2"/>
<path fill-rule="evenodd" clip-rule="evenodd" d="M175.745 19.7954V32.5053C175.745 32.59 175.728 32.6738 175.695 32.7519C175.663 32.83 175.615 32.9009 175.554 32.9605C175.494 33.0201 175.423 33.0672 175.344 33.0992C175.265 33.1312 175.181 33.1474 175.096 33.1469H171.586C171.501 33.1474 171.417 33.1312 171.339 33.0992C171.26 33.0672 171.188 33.0201 171.128 32.9605C171.068 32.9009 171.02 32.83 170.987 32.7519C170.954 32.6738 170.937 32.59 170.937 32.5053V27.9927H166.982V32.5053C166.982 32.59 166.965 32.6738 166.932 32.7519C166.9 32.83 166.852 32.9009 166.791 32.9605C166.731 33.0201 166.66 33.0672 166.581 33.0992C166.502 33.1312 166.418 33.1474 166.333 33.1469H162.825C162.74 33.1474 162.656 33.1312 162.577 33.0992C162.499 33.0672 162.427 33.0201 162.367 32.9605C162.307 32.9009 162.259 32.83 162.226 32.7519C162.193 32.6738 162.176 32.59 162.176 32.5053V19.7954C162.176 19.7107 162.193 19.6269 162.226 19.5488C162.259 19.4707 162.307 19.3998 162.367 19.3402C162.427 19.2806 162.499 19.2335 162.577 19.2015C162.656 19.1695 162.74 19.1533 162.825 19.1538H166.333C166.418 19.1533 166.502 19.1695 166.581 19.2015C166.66 19.2335 166.731 19.2806 166.791 19.3402C166.852 19.3998 166.9 19.4707 166.932 19.5488C166.965 19.6269 166.982 19.7107 166.982 19.7954V24.308H170.937V19.7954C170.937 19.7107 170.954 19.6269 170.987 19.5488C171.02 19.4707 171.068 19.3998 171.128 19.3402C171.188 19.2806 171.26 19.2335 171.339 19.2015C171.417 19.1695 171.501 19.1533 171.586 19.1538H175.096C175.181 19.1533 175.265 19.1695 175.344 19.2015C175.423 19.2335 175.494 19.2806 175.554 19.3402C175.615 19.3998 175.663 19.4707 175.695 19.5488C175.728 19.6269 175.745 19.7107 175.745 19.7954V19.7954Z" fill="#008AD2"/>
</svg>
