<svg xmlns="http://www.w3.org/2000/svg" viewBox="0 0 138.93 56.13"><defs><style>.cls-1{fill:#fff;}</style></defs><g id="Шар_2" data-name="Шар 2"><g id="Слой_1" data-name="Слой 1"><path class="cls-1" d="M30.25,21.43l-.14-.14L30,21.18l-.43-.32-.14-.08-.12-.11-.14-.1-3.09-3.2-.23-.17-.24-.15-.24-.15-.25-.11-.24-.12-.24-.09-.26-.09-.26-.06-.26-.07-.27,0-.25,0-.28,0H22l-.27,0-.27,0-.26,0-.27,0-.26.05-.54.12-.52.14-.76.25-.62.21q.21-.42.39-.87l.15-.4.13-.41.14-.4.1-.41.1-.42.1-.42.08-.42.05-.43,0-.42.06-.42,0-.43V10l0-.44-.06-.42,0-.43,0-.42-.08-.44-.08-.42L19.15,7l-.1-.43-.11-.4-.12-.43-.11-.41-.14-.4-.14-.41-.15-.4-.17-.4L18,3.48l-.12-.23L17.78,3l-.13-.23-.26-.46-.28-.45c-.16-.22-.3-.44-.44-.65,0,0,0,0,0,0-.2-.27-.39-.55-.6-.82L15.88.15l-.1-.1-.13,0h-.13l-.1,0-.1.08-.08.08-.06.07c-.07.13-.14.26-.22.39-.41.66-.82,1.34-1.21,2-.08.12-.15.27-.23.4s0,.06,0,.1c-.15.28-.29.57-.43.86l-.18.41a1.39,1.39,0,0,0-.06.13c-.13.3-.25.61-.36.92l-.27.76c-.06.19-.12.38-.17.59s-.19.66-.27,1-.1.41-.14.62-.12.57-.17.87l-.06.46,0,.48,0,.49,0,.47v.49l0,.48,0,.49,0,.48c0,.24.06.48.1.72s.07.47.12.71.1.47.14.7l.13.46c.11.4.23.81.38,1.21a11.91,11.91,0,0,0-1.34-.33l-.72-.12-.77-.1-.53,0h-1l-.43,0-.43,0-.43.07-.41.09-.42.1-.4.13L4.9,17l-.4.17-.2.11-.19.1-.2.1-.2.11-.19.12-.2.13-.38.27-.55.44c-.2.14-.38.29-.56.44l-.36.34-.17.18-.17.17L1,19.84.81,20l-.15.19-.14.21-.14.19-.12.22L.2,21l-.08.16,0,.16,0,.18,0,.2.05.17L.2,22l.19.06.56.12.29.08c.17.06.33.11.49.18s.57.28.87.41.65.31,1,.45l.71.27.58.19.58.16.46.09.3,0,.48.05h.87L7.91,24,8.25,24l.33-.08.29-.09h0l.33-.12.48-.19.47-.23.31-.19a11.38,11.38,0,0,0,1-.66c0,.17,0,.34,0,.51v.34c0,.1,0,.21,0,.32a6.16,6.16,0,0,0,.09.72l.07.36c0,.18.08.36.13.56a9.2,9.2,0,0,0,.4,1.15l-.11,0-.22-.06-.2,0-.22,0h-.88l-.21,0-.23,0-.22.06-.2,0-.23.07-.21.06-.22.08-.18.07h0l-.21.1-.21.1-.19.1-.2.1-.2.12-.18.13-.18.13-.19.13-.17.14L7,27.84,6.79,28l-.15.15-.15.15-.14.17-.14.17L6,28.92l-.1.16-.09.15-.08.17-.09.16-.07.17-.06.18-.06.18-.06.18,0,.19V31l0,.18.05.24a1.45,1.45,0,0,0,.09.22l-.06,0-.16.13L5.16,32,5,32.15l-.13.15-.11.18-.09.18-.09.21-.06.19,0,.2,0,.19,0,.21v.56l0,.19,0,.2,0,.18,0,.19,0,.18.07.18.13.36c.07.18.14.36.22.54.22.46.45.91.67,1.38l.15.33.15.32c.05.15.09.29.13.43a3.29,3.29,0,0,1,.1.37c0,.13,0,.26.06.4s0,.19,0,.3,0,.26,0,.39v.18l0,.18,0,.18-.06.17L6.13,41,6,41.2l-.11.15-.11.15-.11.16L5.45,42c-.23.26-.49.52-.7.79l-.13.15-.1.17-.07.17,0,.07,0,.09v.09l0,.09v.29l0,.1,0,.1,0,0,0,0,.06,0h.09l.07-.06,0-.06V44l0-.1,0-.14v-.16l0-.06,0-.06.08-.16.11-.15L5,43l.13-.15.26-.28L6,42l.14-.15.12-.14.14-.17.11-.17.11-.19.1-.19.07-.2.08-.2,0-.21,0-.19,0-.21v-.59l0-.19,0-.2,0-.19,0-.19,0-.2-.12-.38c-.06-.19-.13-.37-.2-.57-.2-.48-.41-1-.6-1.47-.06-.18-.14-.36-.2-.53l-.09-.35c-.07-.24-.12-.45-.17-.68l-.06-.34V33.3l0-.16,0-.14.07-.14.07-.13.1-.12.15-.15.14-.1.16.17.19.18.19.16.21.15.21.13.34.18.36.16.35.14a7,7,0,0,0,.72.19.73.73,0,0,0,.2,0c.16,0,.32.07.49.09l.35.06.45,0h.33l.16,0,.16,0,.16-.05.15-.07.12-.07.12-.12.09-.13.06-.17,0-.2V33l0-.19-.05-.19-.08-.19-.1-.19-.11-.16L11,31.88l-.15-.16-.15-.13-.17-.14-.19-.11-.2-.11-.2-.1-.22-.07L9.53,31,9.24,31l-.37-.05H7.8c-.14,0-.3,0-.46.06l-.45.11-.23.06c-.18.05-.35.12-.51.18l0-.14v-.23l0-.22,0-.14,0-.13.1-.27.1-.27.14-.26.15-.24.17-.24.18-.23.3-.34c.11-.1.22-.2.32-.31L8,28c.11-.09.23-.17.36-.26a3,3,0,0,1,.35-.23l.12-.07c.08,0,.15-.09.22-.12l.33-.16L9.77,27a2.07,2.07,0,0,1,.33-.1,3.18,3.18,0,0,1,.33-.08l.34-.05.33,0h.33l.35,0,.34.06a2.6,2.6,0,0,1,.4.1l.06.1.1.16.11.14.08.08,0,.06.13.13.12.13.13.11.14.11.1.07.05,0,.13,0h.12l.11,0,.08-.07.05-.08,0-.11v-.2l0-.1,0-.09,0-.08-.06-.07-.06-.08-.07-.07L13.57,27l-.05,0-.17-.13-.23-.14-.18-.09,0-.13,0-.08,0-.08-.05-.2-.1-.37-.07-.39-.09-.58c0-.37-.07-.75-.11-1.13a9.44,9.44,0,0,1-.06-1.92l.36-.3.13-.12,0,0,.09-.11.11-.16.1-.15.09-.16.07-.15.07-.16,0-.16.05-.15,0-.09,0-.06,0-.14v-.45l-.05-.06v0l-.12-.09-.12-.05h-.11l-.11,0-.09.06-.08.07,0,0,0,0-.25.32L12.4,20l-.17.31-.16.33-.15.33-.12.33-.06.18-.05.18-.07.3c-.16.12-.33.23-.52.35a4.41,4.41,0,0,1-.43.25c-.16.1-.31.17-.45.25L9.76,23c-.16.07-.33.13-.48.18l-.41.13H8.8l-.32.08-.33.06-.32.05-.32,0H6.89l-.32,0-.33-.05-.47-.1-.46-.15A2.28,2.28,0,0,1,4.87,23l-.59-.23L4,22.61c-.68-.32-1.37-.68-2-1l-.48-.22-.39-.12.29-.46.43-.54.44-.46c.15-.16.31-.3.47-.45s.31-.29.48-.43.33-.27.5-.39L4,18.26l.49-.33.29-.16.3-.16.3-.12.32-.12.33-.1a2.07,2.07,0,0,1,.49-.12,4.54,4.54,0,0,1,.51-.09A4.46,4.46,0,0,1,7.56,17l.52,0H9.25c.64,0,1.28.11,1.91.19l.37.07a8.38,8.38,0,0,1,.87.18,4.49,4.49,0,0,0,.21.44,2.28,2.28,0,0,0,.2.38l.06.09.08.14.16.22.17.22.2.19,0,0,.07.06.14.09.15.07.16,0h.16l.15,0,.13,0,.13-.06.18-.16.07-.14,0-.14v-.17l0-.16-.09-.16-.09-.16L14.52,18l-.22-.16c-.1-.06-.21-.14-.31-.19l-.24-.13-.23-.1c-.15-.07-.31-.13-.48-.19l-.17-.08-.11,0-.12-.28-.1-.35-.1-.35-.1-.36-.08-.36-.09-.36-.06-.36L12,14.37,12,14l0-.36,0-.37,0-.38,0-.36V11.41l0-.37,0-.38,0-.37L12,9.92l0-.36.07-.37.06-.38.07-.36.09-.36.08-.36.11-.36.1-.36.13-.36.12-.33h0L13,6l.14-.35.19-.45.19-.4,0,0c.11-.2.22-.39.33-.6s.22-.38.34-.58.39-.6.58-.91L15,2.38l.43-.6.28-.45c.25.32.5.61.74.92l.22.4c.26.48.52,1,.77,1.43l.8,2.11.19.67.09.33.08.35.08.33.07.34.05.35.05.33.05.33.05.36,0,.33,0,.35,0,.33v1.7l0,.33L19,13l-.05.34,0,.33-.06.34-.06.33-.06.34L18.6,15l-.1.32-.1.34-.11.32c-.13.37-.27.73-.43,1.09l-.18.34-.45.18-.43.19-.15.08h0l-.12.07-.14.09-.13.09-.12.08-.13.11-.09.11-.1.14-.09.12,0,.1V19l0,.09,0,.07.06.07.09,0,.06,0H16l.06,0h.2l.07,0a1.53,1.53,0,0,0,.27-.17,3.76,3.76,0,0,0,.31-.25l.19-.2.29-.31c.08-.11.17-.22.24-.33l.21-.31.86-.31.46-.15.79-.2c.16,0,.31-.06.47-.09l.8-.1.48,0h.65l.62,0,.4.05c.13,0,.25,0,.37.09l.36.12.34.14a2,2,0,0,1,.32.17l.32.19a3.79,3.79,0,0,1,.4.3c.14.11.26.23.39.35l.48.47c.35.41.69.83,1,1.24l1.14,1.23c.22.18.45.35.66.51l-.09.11-.79.5-1,.49-.87.32c-.29.1-.59.19-.89.27s-.53.12-.8.17l-.23,0c-.27,0-.53.06-.8.07h-.61l-.2,0-.18,0-.2,0-.19-.05-.18-.05L22,23.47l-.38-.13-.35-.16L20.88,23l-.54-.28-.52-.31c-.47-.3-.95-.58-1.42-.86l-.53-.31-.4-.19a6.63,6.63,0,0,0-.6-.29l-.23-.1-.1,0-.14,0-.15-.06H16l-.14,0-.11.08-.09.12,0,.07a.52.52,0,0,0,0,.18v.06l0,.06,0,.05.11.09.1-.05,0,0,0-.05V21a.14.14,0,0,0,0-.07.09.09,0,0,1,0-.11.45.45,0,0,1,.23,0l.17.05.16.05.16.07h0l.19.08.17.08.35.2.57.33c.52.35,1,.73,1.55,1.07.21.15.42.27.62.4l.44.26.42.24.23.11.22.1.22.09.23.09.22.08.23.07.23.06.16,0,.15,0,.32,0,.32,0h.31l.31,0c.51,0,1-.12,1.52-.21a5.61,5.61,0,0,0,.59-.13l.6-.15.59-.2.58-.21.56-.26L29,23l.27-.15.54-.35.15-.12.16-.14.15-.17.11-.19,0-.23-.1-.21M7.1,31.72l.18-.06.2-.06.19-.05.2-.05.19,0,.21,0,.2,0h.58l.2,0,.2,0,.32.09.28.1.24.12.21.14.19.16.14.15.13.17.09.16.08.17,0,.16,0,.14,0,.14,0,.1v.16l-.13.07-.13.08-.16,0-.17,0H10l-.19,0-.21,0-.2,0-.19,0-.36-.12h0c-.19-.06-.38-.14-.57-.22L7.91,33c-.13-.07-.26-.15-.41-.22l-.27-.17-.13-.09L7,32.41l-.12-.11-.12-.1-.12-.11L6.52,32a5.1,5.1,0,0,1,.58-.26m6.26-4.45.08.06.08.05h0l.09.06.08.09.06.08,0,.08,0,.08v0h0l-.07,0-.09-.08-.09-.09,0,0,0-.07-.09-.09-.14-.19.12,0m-.85-6.41.07-.25.1-.23.11-.25a1,1,0,0,1,.08-.14,4,4,0,0,1,.23-.39l.05,0a.31.31,0,0,1,.12-.11s0,0,0,.05v.17l0,.17,0,.09,0,.11-.05.12-.05.12-.06.13-.07.13-.1.15,0,0-.08.1-.06.09-.15.17-.15.14a2.33,2.33,0,0,1,.08-.38m.87-3.12.14.07.19.09.32.19a2.55,2.55,0,0,1,.28.21l.09.06,0,0,.05.06,0,.09,0,.09,0,.11v.07l0,.07,0,0-.16.07-.09,0H14l-.07,0-.06,0-.06-.05-.07-.06-.08-.07-.07-.09h0l-.07-.1-.07-.12a3.55,3.55,0,0,1-.23-.43c-.08-.15-.15-.3-.22-.46l.45.17m3.42.84-.16.17-.17.14-.21.14H16.2a.38.38,0,0,1-.15,0L16,19v-.1l0-.09.09-.11.17-.14.26-.17.1-.05.26-.13.31-.14.08,0A5.37,5.37,0,0,1,16.8,18.58Z"/><path class="cls-1" d="M37.59,43.25H32.44L34.52,31.6H34.4l-5,11.65H24.58l-.8-11.65h-.15L21.56,43.25H16.67l2.64-14.81h8.51l.5,8.1h.11l3.31-8.1h8.49Z"/><path class="cls-1" d="M53.76,43.25H40.51l2.64-14.81h13.1l-.63,3.5H48.27l-.37,2.11h7l-.6,3.4h-7l-.41,2.29h7.5Z"/><path class="cls-1" d="M71.38,32.68H63.52L61.63,43.25H55.89l2.64-14.81H70.81Z"/><polygon class="cls-1" points="78.92 28.43 73.81 28.43 75.11 36.58 66.85 36.58 63.3 43.25 69.04 43.25 70.62 40.05 75.12 40.05 75.58 43.25 81.62 43.25 78.92 28.43"/><path class="cls-1" d="M98.74,43.25H91.88L89.31,37h-.08l-1.12,6.29H82.36L85,28.44h5.75l-1,5.82h.1l4.57-5.82h6.53l-6.29,6.94Z"/><path class="cls-1" d="M108.66,38.48A2.46,2.46,0,0,1,106.42,40a1.61,1.61,0,0,1-1.7-1.49,7.68,7.68,0,0,1,.13-2.62,8.8,8.8,0,0,1,.81-2.64,2.44,2.44,0,0,1,2.23-1.46,1.61,1.61,0,0,1,1.71,1.48,7.68,7.68,0,0,1-.13,2.62A8.7,8.7,0,0,1,108.66,38.48Zm5.66-8.25q-1.83-2-5.8-2a10.12,10.12,0,0,0-6.52,2,8.89,8.89,0,0,0-3.2,5.61q-.64,3.57,1.2,5.61c1.22,1.36,3.16,2,5.8,2a10.14,10.14,0,0,0,6.52-2,8.85,8.85,0,0,0,3.2-5.61C116,33.46,115.54,31.59,114.32,30.23Z"/><path class="cls-1" d="M136.29,43.25h-5.15l2.08-11.65h-.13l-5,11.65h-4.78l-.8-11.65h-.15l-2.07,11.65h-4.89L118,28.44h8.51l.5,8.1h.11l3.31-8.1h8.49Z"/><path class="cls-1" d="M56.83,53.79a4.7,4.7,0,0,1-1.86.34,2.71,2.71,0,0,1-2.9-3,4.47,4.47,0,0,1,1.52-3.45,4.08,4.08,0,0,1,2.71-1,3,3,0,0,1,1.55.34l-.29.71a2.93,2.93,0,0,0-1.41-.28,3.06,3.06,0,0,0-2,.79A3.78,3.78,0,0,0,53,51a2,2,0,0,0,2.18,2.33,3.63,3.63,0,0,0,1.53-.3Z"/><path class="cls-1" d="M57.76,54l.68-3.64c.1-.58.19-1.08.24-1.5h.79l-.13,1h0a2.25,2.25,0,0,1,1.9-1.13,1.26,1.26,0,0,1,1.31,1.42,5,5,0,0,1-.09.83l-.58,3H61l.56-3a3.6,3.6,0,0,0,.07-.66c0-.51-.2-.9-.81-.9a2.26,2.26,0,0,0-1.75,2L58.63,54Z"/><path class="cls-1" d="M63,56.13l1-5.42c.11-.63.22-1.32.28-1.84h.81l-.13,1h0a2.25,2.25,0,0,1,1.85-1.08c1.1,0,1.57.91,1.57,1.86a3.34,3.34,0,0,1-3,3.52,2.39,2.39,0,0,1-1.11-.23h0l-.41,2.22Zm1.44-3a1.62,1.62,0,0,0,1,.29c1.14,0,2.09-1.42,2.09-2.77,0-.54-.24-1.19-1-1.19s-1.57.79-1.82,2.24Z"/><path class="cls-1" d="M70.8,48.88l-.54,2.87a4.36,4.36,0,0,0-.08.75c0,.53.21.9.82.9s1.45-.76,1.67-1.89l.49-2.63h.89l-.69,3.64c-.11.58-.18,1.08-.24,1.5h-.78l.12-1h0a2.28,2.28,0,0,1-1.81,1.08c-.66,0-1.36-.32-1.36-1.49a4.37,4.37,0,0,1,.1-.87l.56-2.9Z"/><path class="cls-1" d="M78.14,54h-.86l.41-2.17h-.52a1.55,1.55,0,0,0-1.5,1c-.19.39-.36.77-.57,1.12h-.94a14.55,14.55,0,0,0,.71-1.36,1.92,1.92,0,0,1,1.31-1.1v0a1.26,1.26,0,0,1-1.07-1.15c0-1.31,1.43-1.58,2.5-1.58a12.34,12.34,0,0,1,1.5.11Zm0-4.52a3.14,3.14,0,0,0-.69-.06c-.69,0-1.42.18-1.42,1,0,.58.72.83,1.24.83h.54Z"/><path class="cls-1" d="M83.72,49.72a2,2,0,0,0-3,1.39h2.43l-.12.62H80.64a2.18,2.18,0,0,0,0,.25,1.42,1.42,0,0,0,1.51,1.45,2.67,2.67,0,0,0,1.06-.23l.12.63a3.25,3.25,0,0,1-1.46.3,2,2,0,0,1-2.12-2.23,3.4,3.4,0,0,1,.83-2.24,2.91,2.91,0,0,1,2.14-.9,2.58,2.58,0,0,1,1.28.31Z"/><path class="cls-1" d="M86.49,48.88l.41,2.6c.06.41.15,1,.2,1.41h0c.17-.37.57-1.1.92-1.73l1.31-2.28h1.1L89.79,54H89l.34-2.45c.07-.57.18-1.25.26-1.8h0c-.14.32-.53,1-.84,1.62L87.2,54h-.68l-.39-2.55c-.07-.5-.17-1.22-.2-1.68h-.05c-.12.57-.27,1.26-.42,1.83L84.83,54H84l1.39-5.14Z"/><path class="cls-1" d="M91.31,52a3.07,3.07,0,0,1,2.85-3.26,2,2,0,0,1,2,2.14,3.09,3.09,0,0,1-2.86,3.24A2,2,0,0,1,91.31,52Zm4-1.12c0-.6-.27-1.44-1.2-1.44-1.1,0-1.84,1.35-1.84,2.53,0,.84.47,1.45,1.21,1.45C94.48,53.44,95.26,52.1,95.26,50.9Z"/><path class="cls-1" d="M99.53,51h.35c.6,0,1.48-.26,1.48-.91,0-.45-.39-.67-.84-.67a2.46,2.46,0,0,0-1.23.36l-.2-.55a3,3,0,0,1,1.56-.47c.79,0,1.63.32,1.63,1.23,0,.74-.67,1.16-1.35,1.3h0a1.31,1.31,0,0,1,1.19,1.2c0,1.22-1.19,1.62-2.21,1.62a3,3,0,0,1-1.67-.44l.25-.63a2.71,2.71,0,0,0,1.37.39c.59,0,1.34-.27,1.34-.94s-.73-.87-1.35-.87h-.42Z"/><path class="cls-1" d="M104.14,46.37a9.15,9.15,0,0,0,1.11.12,2.69,2.69,0,0,1,1.83.75,3.35,3.35,0,0,1,.75,2.31c0,1.75-.74,4.59-2.94,4.59a1.79,1.79,0,0,1-1.86-2c0-1.46.92-3.22,2.56-3.22A1.42,1.42,0,0,1,107.06,50h0c0-.14,0-.31,0-.48a2.62,2.62,0,0,0-.54-1.68,2.16,2.16,0,0,0-1.5-.56,6.39,6.39,0,0,1-.88-.11Zm2.59,4.6c0-.69-.34-1.4-1.1-1.4-1.16,0-1.7,1.49-1.69,2.52,0,.71.31,1.37,1.09,1.37C106.07,53.46,106.73,51.88,106.73,51Z"/><path class="cls-1" d="M108.37,52a3.08,3.08,0,0,1,2.85-3.26,2,2,0,0,1,2,2.14,3.09,3.09,0,0,1-2.87,3.24A2,2,0,0,1,108.37,52Zm4-1.12a1.28,1.28,0,0,0-1.2-1.44c-1.11,0-1.84,1.35-1.84,2.53,0,.84.47,1.45,1.21,1.45C111.54,53.44,112.33,52.1,112.33,50.9Z"/><path class="cls-1" d="M113.39,56.13l1-5.42c.11-.63.22-1.32.28-1.84h.81l-.14,1h0a2.27,2.27,0,0,1,1.85-1.08c1.11,0,1.58.91,1.58,1.86a3.34,3.34,0,0,1-3,3.52,2.39,2.39,0,0,1-1.11-.23h0l-.41,2.22Zm1.45-3a1.58,1.58,0,0,0,1,.29c1.14,0,2.08-1.42,2.08-2.77,0-.54-.23-1.19-1-1.19s-1.56.79-1.81,2.24Z"/><path class="cls-1" d="M119.52,52a3.07,3.07,0,0,1,2.85-3.26,2,2,0,0,1,2,2.14,3.09,3.09,0,0,1-2.86,3.24A2,2,0,0,1,119.52,52Zm4-1.12a1.28,1.28,0,0,0-1.21-1.44c-1.1,0-1.84,1.35-1.84,2.53,0,.84.47,1.45,1.22,1.45C122.69,53.44,123.48,52.1,123.48,50.9Z"/><path class="cls-1" d="M129.35,50c0,.7-.68,1.12-1.22,1.29v0a1.14,1.14,0,0,1,1.07,1.15c0,1.22-1.27,1.71-2.32,1.71s-1.72-.41-1.72-1.49a4.92,4.92,0,0,1,1.34-3.42,2.18,2.18,0,0,1,1.4-.46C128.71,48.76,129.35,49.13,129.35,50Zm-3.21,1.83a4.64,4.64,0,0,0-.09.79.82.82,0,0,0,.93.91c.7,0,1.32-.37,1.32-1s-.49-.83-1.08-.83A4.34,4.34,0,0,0,126.14,51.78Zm.12-.62a5.11,5.11,0,0,0,1.7-.41.9.9,0,0,0,.53-.72c0-.42-.31-.62-.73-.62C126.85,49.41,126.46,50.4,126.26,51.16Z"/><path class="cls-1" d="M132.44,46.66a16.27,16.27,0,0,1-1.39,2.54l-.62.06a17.73,17.73,0,0,0,1-2.49Z"/><path class="cls-1" d="M134,48.88l-.4,2.09h.83A2.77,2.77,0,0,1,137,48.76a2,2,0,0,1,2,2.17c0,1.56-1.08,3.21-2.74,3.21a1.89,1.89,0,0,1-1.91-2,3.64,3.64,0,0,1,0-.45h-.85L133,54h-.88l1-5.14Zm4,2c0-.61-.26-1.45-1.12-1.45-1.07,0-1.76,1.4-1.76,2.53,0,.8.43,1.45,1.16,1.45C137.28,53.44,138,52.1,138,50.91Z"/></g></g></svg>