<svg aria-hidden="true" style="position: absolute; width: 0; height: 0; overflow: hidden;" version="1.1" xmlns="http://www.w3.org/2000/svg" xmlns:xlink="http://www.w3.org/1999/xlink">
<defs>
<symbol id="icon-anc-logo" viewBox="0 0 121 32">
<path fill="#008ad2" style="fill: var(--color1, #008ad2)" d="M4.094 21.355c-1.338 0-2.33-0.959-2.33-2.278v-6.597c0-1.319 0.991-2.278 2.33-2.278h2.156c1.338 0 2.314 0.959 2.314 2.278v0.832h-2.251v-0.612c0-0.189-0.125-0.298-0.315-0.298h-1.668c-0.189 0-0.299 0.111-0.299 0.298v6.157c0 0.189 0.111 0.298 0.299 0.298h1.669c0.189 0 0.315-0.11 0.315-0.298v-0.612h2.251v0.832c0 1.319-0.977 2.278-2.314 2.278h-2.158z"></path>
<path fill="#008ad2" style="fill: var(--color1, #008ad2)" d="M18.814 10.281h2.519v10.995h-2.172v-5.561h-0.125l-1.968 5.561h-2.503l-1.968-5.561h-0.125v5.561h-2.172v-10.995h2.519l2.929 8.2h0.141l2.926-8.2z"></path>
<path fill="#008ad2" style="fill: var(--color1, #008ad2)" d="M23.379 21.277v-10.995h2.33v10.995h-2.33z"></path>
<path fill="#008ad2" style="fill: var(--color1, #008ad2)" d="M34.683 21.277h-2.346v-8.796h-1.354l-1.26 8.796h-2.362l1.591-10.995h5.731v10.995z"></path>
<path fill="#008ad2" style="fill: var(--color1, #008ad2)" d="M43.531 21.277h-2.172v-5.797h-0.125l-2.22 5.797h-2.283v-10.995h2.172v5.827h0.125l2.22-5.827h2.283v10.995z"></path>
<path fill="#008ad2" style="fill: var(--color1, #008ad2)" d="M45.576 21.277v-10.995h4.44c1.306 0 2.314 0.959 2.314 2.278v1.382c0 0.739-0.362 1.43-0.961 1.759v0.157c0.598 0.33 0.961 1.021 0.961 1.759v1.382c0 1.319-1.007 2.278-2.33 2.278l-4.423 0.001zM47.78 14.68h2.047c0.173 0 0.299-0.111 0.299-0.298v-1.602c0-0.189-0.125-0.298-0.299-0.298h-2.047v2.198zM47.78 19.077h2.047c0.173 0 0.299-0.11 0.299-0.298v-1.602c0-0.189-0.125-0.298-0.299-0.298h-2.047v2.198z"></path>
<path fill="#008ad2" style="fill: var(--color1, #008ad2)" d="M54.219 21.277v-10.995h2.33v10.995h-2.33z"></path>
<path fill="#008ad2" style="fill: var(--color1, #008ad2)" d="M60.768 21.355c-1.338 0-2.33-0.959-2.33-2.278v-6.597c0-1.319 0.991-2.278 2.33-2.278h2.157c1.338 0 2.314 0.959 2.314 2.278v0.832h-2.251v-0.612c0-0.189-0.126-0.298-0.315-0.298h-1.669c-0.19 0-0.299 0.111-0.299 0.298v6.157c0 0.189 0.111 0.298 0.299 0.298h1.669c0.19 0 0.315-0.11 0.315-0.298v-0.612h2.251v0.832c0 1.319-0.977 2.278-2.314 2.278h-2.157z"></path>
<path fill="#008ad2" style="fill: var(--color1, #008ad2)" d="M73.19 12.481h-2.221v8.796h-2.33v-8.796h-2.22v-2.199h6.769v2.199h0.001z"></path>
<path fill="#008ad2" style="fill: var(--color1, #008ad2)" d="M74.684 10.281h2.33v4.399h2.156c1.323 0 2.33 0.959 2.33 2.278v2.042c0 1.319-1.007 2.278-2.33 2.278h-4.487v-10.997h0.001zM76.936 16.879v2.199h2.063c0.174 0 0.299-0.11 0.299-0.298v-1.602c0-0.189-0.125-0.298-0.299-0.298l-2.063-0.001z"></path>
<path fill="#008ad2" style="fill: var(--color1, #008ad2)" d="M104.126 25.792c-0.732-1.353-2.265-1.801-2.265-1.801-0.941-0.294-4.345-0.019-5.176-0.187s-1.552-0.211-1.812 0.012c-0.26 0.223 0.039 0.572 0.421 0.739 1.147 0.503 3.784 0.939 3.784 0.939s-3.443 1.583-7.141-2.617c-1.056-1.196-1.781-0.592-1.454-0.076 0.993 1.61 4.457 6.241 11.714 6.241 5.040 0 9.11-3.007 11.199-6.36 0.311-0.5 0.021-0.743-0.571-0.143-1.779 1.801-4.973 4.16-8.699 3.253z"></path>
<path fill="#008ad2" style="fill: var(--color1, #008ad2)" d="M100.074 5.763c0.733 1.352 2.265 1.799 2.265 1.799 0.941 0.294 4.344 0.019 5.176 0.187s1.552 0.211 1.812-0.012c0.26-0.223-0.039-0.571-0.421-0.738-1.147-0.503-3.786-0.932-3.786-0.932s3.44-1.589 7.14 2.606c1.056 1.196 1.781 0.592 1.454 0.075-0.99-1.605-4.455-6.235-11.712-6.235-5.040 0-9.109 3.005-11.198 6.36-0.311 0.499-0.021 0.742 0.57 0.143 1.78-1.802 4.975-4.163 8.701-3.254z"></path>
<path fill="#008ad2" style="fill: var(--color1, #008ad2)" d="M93.467 18.049h-3.259l-0.587 1.74c-0.027 0.077-0.077 0.144-0.143 0.191s-0.146 0.072-0.228 0.072h-1.926c-0.061 0-0.121-0.014-0.176-0.041s-0.101-0.067-0.138-0.116-0.060-0.106-0.071-0.166c-0.010-0.060-0.005-0.122 0.013-0.18l2.509-7.718c0.026-0.078 0.075-0.146 0.142-0.194s0.147-0.074 0.229-0.074h4.022c0.082-0 0.162 0.025 0.229 0.073s0.117 0.115 0.142 0.193l2.539 7.718c0.018 0.058 0.023 0.12 0.013 0.18s-0.034 0.117-0.070 0.166c-0.036 0.049-0.084 0.089-0.138 0.116s-0.115 0.041-0.176 0.041h-2.008c-0.083 0-0.164-0.026-0.231-0.074s-0.117-0.117-0.142-0.196l-0.545-1.733zM90.752 16.231l2.12 0.012-1.037-3.328-1.084 3.316z"></path>
<path fill="#008ad2" style="fill: var(--color1, #008ad2)" d="M107.172 19.629v-7.657c0.001-0.103 0.042-0.202 0.116-0.274s0.173-0.113 0.276-0.113h2.013c0.051-0 0.101 0.010 0.149 0.029s0.090 0.048 0.126 0.084c0.036 0.036 0.065 0.079 0.085 0.126s0.030 0.098 0.030 0.149v5.876h2.018v-5.876c0.001-0.103 0.042-0.202 0.115-0.274s0.173-0.113 0.277-0.113h2.018c0.103-0 0.203 0.040 0.276 0.113s0.115 0.171 0.116 0.274v5.876h0.705c0.051-0 0.102 0.009 0.149 0.029s0.091 0.048 0.127 0.083c0.037 0.036 0.066 0.079 0.085 0.126s0.031 0.098 0.031 0.149v2.977c0 0.051-0.011 0.102-0.031 0.148s-0.048 0.090-0.085 0.126c-0.036 0.036-0.079 0.064-0.127 0.083s-0.098 0.029-0.149 0.029h-0.883c-0.095 0.001-0.187-0.033-0.258-0.095s-0.118-0.148-0.13-0.241l-0.19-1.245h-6.468c-0.051 0-0.101-0.009-0.149-0.029s-0.091-0.048-0.127-0.083-0.065-0.079-0.085-0.126c-0.020-0.047-0.030-0.098-0.031-0.149v0z"></path>
<path fill="#008ad2" style="fill: var(--color1, #008ad2)" d="M106.11 11.952v7.674c0 0.051-0.010 0.102-0.030 0.149s-0.048 0.090-0.085 0.126c-0.036 0.036-0.079 0.064-0.127 0.084s-0.098 0.029-0.15 0.029h-2.119c-0.051 0-0.102-0.009-0.149-0.029s-0.091-0.048-0.127-0.084-0.065-0.079-0.085-0.126c-0.020-0.047-0.030-0.098-0.030-0.149v-2.725h-2.388v2.725c0 0.051-0.010 0.102-0.030 0.149s-0.048 0.090-0.085 0.126c-0.036 0.036-0.079 0.064-0.127 0.084s-0.098 0.029-0.15 0.029h-2.118c-0.051 0-0.102-0.009-0.15-0.029s-0.091-0.048-0.127-0.084-0.065-0.079-0.085-0.126c-0.020-0.047-0.030-0.098-0.030-0.149v-7.674c0-0.051 0.010-0.102 0.030-0.149s0.049-0.090 0.085-0.126c0.036-0.036 0.080-0.064 0.127-0.084s0.098-0.029 0.15-0.029h2.118c0.051-0 0.102 0.009 0.15 0.029s0.091 0.048 0.127 0.084c0.037 0.036 0.066 0.079 0.085 0.126s0.030 0.098 0.030 0.149v2.725h2.388v-2.725c0-0.051 0.010-0.102 0.030-0.149s0.049-0.090 0.085-0.126c0.036-0.036 0.080-0.064 0.127-0.084s0.098-0.029 0.149-0.029h2.119c0.051-0 0.102 0.009 0.15 0.029s0.091 0.048 0.127 0.084c0.037 0.036 0.066 0.079 0.085 0.126s0.030 0.098 0.030 0.149v0z"></path>
</symbol>
</defs>
</svg>
